<svg width="27" height="27" viewBox="0 0 27 27" fill="none" xmlns="http://www.w3.org/2000/svg">
<path d="M23.625 10.125H16.875V3.375C16.875 2.47989 16.5194 1.62145 15.8865 0.988514C15.2535 0.355579 14.3951 0 13.5 0C12.6049 0 11.7465 0.355579 11.1135 0.988514C10.4806 1.62145 10.125 2.47989 10.125 3.375L10.2448 10.125H3.375C2.47989 10.125 1.62145 10.4806 0.988514 11.1135C0.355579 11.7465 0 12.6049 0 13.5C0 14.3951 0.355579 15.2535 0.988514 15.8865C1.62145 16.5194 2.47989 16.875 3.375 16.875L10.2448 16.7552L10.125 23.625C10.125 24.5201 10.4806 25.3785 11.1135 26.0115C11.7465 26.6444 12.6049 27 13.5 27C14.3951 27 15.2535 26.6444 15.8865 26.0115C16.5194 25.3785 16.875 24.5201 16.875 23.625V16.7552L23.625 16.875C24.5201 16.875 25.3785 16.5194 26.0115 15.8865C26.6444 15.2535 27 14.3951 27 13.5C27 12.6049 26.6444 11.7465 26.0115 11.1135C25.3785 10.4806 24.5201 10.125 23.625 10.125Z" fill="white"/>
</svg>
