<svg width="32" height="39" viewBox="0 0 32 39" fill="none" xmlns="http://www.w3.org/2000/svg">
<path d="M5.97943 39C4.3261 39 2.91657 38.4468 1.75086 37.3403C0.583619 36.2368 0 34.9014 0 33.3342V6.5C0 4.68289 0.663619 3.14528 1.99086 1.88717C3.31809 0.629056 4.94019 0 6.85714 0H32V29.835C30.9897 29.835 30.1211 30.1781 29.3943 30.8642C28.6674 31.5503 28.3055 32.3736 28.3086 33.3342C28.3116 34.2947 28.6743 35.1173 29.3966 35.802C30.1189 36.4867 30.9867 36.8304 32 36.8333V39H5.97943ZM2.28571 28.9532C2.78857 28.5343 3.34857 28.2151 3.96571 27.9955C4.57981 27.7759 5.25029 27.6662 5.97714 27.6662H7.73714V2.16667H6.85714C5.61219 2.16667 4.53867 2.5935 3.63657 3.44717C2.736 4.30228 2.28571 5.31989 2.28571 6.5V28.9532ZM10.0229 27.6662H29.7143V2.16667H10.0229V27.6662ZM5.97943 36.8333H27.3806C26.9463 36.3567 26.611 35.828 26.3749 35.2473C26.1387 34.6696 26.0206 34.0311 26.0206 33.332C26.0206 32.6719 26.1364 32.0436 26.368 31.447C26.5996 30.8504 26.9371 30.3124 27.3806 29.8328H5.97943C4.92952 29.8328 4.05181 30.1766 3.34629 30.8642C2.64076 31.5517 2.28724 32.3751 2.28571 33.3342C2.28571 34.3279 2.63924 35.1592 3.34629 35.828C4.05333 36.4968 4.93105 36.8319 5.97943 36.8333Z" fill="#111111"/>
</svg>
