<svg width="47" height="35" viewBox="0 0 47 35" fill="none" xmlns="http://www.w3.org/2000/svg">
<path d="M32.5385 14.8077C32.5385 12.2135 31.3004 9.99449 28.8242 8.15054C26.3481 6.30659 23.3682 5.38461 19.8846 5.38461C16.401 5.38461 13.4212 6.30659 10.945 8.15054C8.46885 9.99449 7.23077 12.2135 7.23077 14.8077C7.23077 17.4018 8.46885 19.6209 10.945 21.4648C13.4212 23.3088 16.401 24.2308 19.8846 24.2308C23.3682 24.2308 26.3481 23.3088 28.8242 21.4648C31.3004 19.6209 32.5385 17.4018 32.5385 14.8077ZM47 32.3077C47 33.0369 46.6422 33.6679 45.9267 34.2007C45.2111 34.7336 44.3638 35 43.3846 35C42.3678 35 41.5204 34.7336 40.8425 34.2007L31.1544 27.0072C27.7839 28.746 24.0272 29.6154 19.8846 29.6154C17.1919 29.6154 14.6169 29.2263 12.1596 28.448C9.70222 27.6698 7.58383 26.6181 5.80439 25.293C4.02494 23.9678 2.61268 22.3903 1.56761 20.5604C0.522536 18.7305 0 16.8129 0 14.8077C0 12.8025 0.522536 10.8849 1.56761 9.05499C2.61268 7.22506 4.02494 5.64754 5.80439 4.32242C7.58383 2.9973 9.70222 1.94561 12.1596 1.16737C14.6169 0.389123 17.1919 0 19.8846 0C22.5773 0 25.1523 0.389123 27.6097 1.16737C30.067 1.94561 32.1854 2.9973 33.9648 4.32242C35.7443 5.64754 37.1566 7.22506 38.2016 9.05499C39.2467 10.8849 39.7692 12.8025 39.7692 14.8077C39.7692 17.8926 38.6018 20.6901 36.2668 23.2001L45.9549 30.4147C46.6516 30.9335 47 31.5645 47 32.3077Z" fill="#111111"/>
</svg>
