<svg width="23" height="24" viewBox="0 0 23 24" fill="none" xmlns="http://www.w3.org/2000/svg">
<path d="M14.1532 18.6577L7.62335 15.1375C6.99655 15.7525 6.19957 16.1703 5.3329 16.3382C4.46622 16.5061 3.56865 16.4167 2.75333 16.0811C1.93801 15.7456 1.24145 15.1789 0.751461 14.4527C0.261475 13.7264 0 12.873 0 12C0 11.127 0.261475 10.2736 0.751461 9.54735C1.24145 8.82106 1.93801 8.25442 2.75333 7.91887C3.56865 7.58331 4.46622 7.49387 5.3329 7.6618C6.19957 7.82973 6.99655 8.24753 7.62335 8.86251L14.1532 5.34231C13.9293 4.30373 14.091 3.22017 14.6089 2.28977C15.1268 1.35938 15.9662 0.644334 16.9736 0.275392C17.981 -0.0935509 19.0891 -0.0917338 20.0953 0.280511C21.1015 0.652756 21.9384 1.37055 22.4532 2.30264C22.9679 3.23472 23.1261 4.31881 22.8986 5.35666C22.6712 6.3945 22.0734 7.31675 21.2146 7.95474C20.3557 8.59274 19.2933 8.90385 18.2214 8.83119C17.1496 8.75852 16.1401 8.30694 15.3774 7.55902L8.84754 11.0792C8.97815 11.6859 8.97815 12.3129 8.84754 12.9195L15.3774 16.441C16.1401 15.6931 17.1496 15.2415 18.2214 15.1688C19.2933 15.0962 20.3557 15.4073 21.2146 16.0453C22.0734 16.6833 22.6712 17.6055 22.8986 18.6433C23.1261 19.6812 22.9679 20.7653 22.4532 21.6974C21.9384 22.6295 21.1015 23.3472 20.0953 23.7195C19.0891 24.0917 17.981 24.0936 16.9736 23.7246C15.9662 23.3557 15.1268 22.6406 14.6089 21.7102C14.091 20.7798 13.9293 19.6963 14.1532 18.6577Z" fill="#B3B3B3"/>
</svg>
