<svg width="39" height="39" viewBox="0 0 39 39" fill="none" xmlns="http://www.w3.org/2000/svg">
<path d="M26.8125 9.42226e-08C25.0227 -0.000222442 23.2549 0.393751 21.6346 1.15392C20.0142 1.9141 18.5812 3.02181 17.4374 4.39835C16.2935 5.77489 15.4669 7.38647 15.0162 9.11857C14.5655 10.8507 14.5019 12.6608 14.8298 14.4202L0 29.25V36.5625C0 37.209 0.256807 37.829 0.713927 38.2861C1.17105 38.7432 1.79103 39 2.4375 39H4.875V36.5625H9.75V31.6875H14.625V26.8125H19.5L22.6639 23.6486C24.3363 24.2534 26.1208 24.4849 27.8922 24.3267C29.6636 24.1686 31.3789 23.6247 32.9178 22.7332C34.4566 21.8417 35.7817 20.6242 36.8001 19.1663C37.8184 17.7083 38.5054 16.045 38.8127 14.2934C39.12 12.5417 39.0402 10.744 38.5789 9.02641C38.1176 7.30885 37.286 5.71304 36.1425 4.35099C34.999 2.98895 33.5712 1.89367 31.9595 1.14202C30.3477 0.39038 28.5909 0.000586629 26.8125 9.42226e-08ZM30.4639 12.1924C29.9836 12.1922 29.508 12.0975 29.0643 11.9135C28.6206 11.7295 28.2175 11.46 27.878 11.1203C27.5385 10.7805 27.2692 10.3772 27.0856 9.93343C26.9019 9.48963 26.8075 9.01399 26.8076 8.53369C26.8078 8.05338 26.9025 7.57781 27.0865 7.13413C27.2705 6.69044 27.54 6.28734 27.8797 5.94782C28.2195 5.60831 28.6228 5.33904 29.0666 5.15538C29.5104 4.97172 29.986 4.87728 30.4663 4.87744C31.4363 4.87776 32.3665 5.26341 33.0522 5.94955C33.7379 6.63568 34.1229 7.5661 34.1226 8.53613C34.1222 9.50615 33.7366 10.4363 33.0505 11.122C32.3643 11.8077 31.4339 12.1927 30.4639 12.1924Z" fill="#111111"/>
</svg>
