<svg width="22" height="22" viewBox="0 0 22 22" fill="none" xmlns="http://www.w3.org/2000/svg">
<path d="M14.4999 11L21.2751 4.22475C22.2416 3.25828 22.2416 1.69134 21.2751 0.724858C20.3086 -0.24162 18.7418 -0.24162 17.7752 0.724858L11 7.5001L4.22475 0.724858C3.25828 -0.24162 1.69134 -0.24162 0.724858 0.724858C-0.24162 1.69134 -0.24162 3.25828 0.724858 4.22475L7.5001 11L0.724858 17.7752C-0.24162 18.7417 -0.24162 20.3087 0.724858 21.2751C1.2081 21.7583 1.84144 22 2.47478 22C3.10812 22 3.74152 21.7584 4.2247 21.2751L11 14.4999L17.7752 21.2751C18.2585 21.7583 18.8918 22 19.5252 22C20.1585 22 20.7919 21.7584 21.2751 21.2751C22.2416 20.3087 22.2416 18.7417 21.2751 17.7752L14.4999 11Z" fill="#B3B3B3"/>
</svg>
