<svg width="32" height="32" viewBox="0 0 32 32" fill="none" xmlns="http://www.w3.org/2000/svg">
<path d="M26.8575 22.515C26.7899 22.628 26.7006 22.7265 26.5949 22.8049C26.4891 22.8833 26.3689 22.94 26.2411 22.9718C26.1134 23.0036 25.9806 23.0099 25.8504 22.9903C25.7202 22.9707 25.5952 22.9256 25.4825 22.8575L17 17.7663V27C17 27.2652 16.8946 27.5196 16.7071 27.7071C16.5196 27.8946 16.2652 28 16 28C15.7348 28 15.4804 27.8946 15.2929 27.7071C15.1054 27.5196 15 27.2652 15 27V17.7663L6.515 22.8575C6.40235 22.9267 6.27709 22.9729 6.14647 22.9934C6.01586 23.0139 5.88248 23.0082 5.75405 22.9768C5.62562 22.9454 5.50469 22.8889 5.39826 22.8104C5.29183 22.732 5.20201 22.6332 5.134 22.5198C5.06599 22.4065 5.02114 22.2807 5.00204 22.1499C4.98294 22.0191 4.98997 21.8858 5.02273 21.7577C5.05549 21.6296 5.11332 21.5093 5.19288 21.4037C5.27245 21.2981 5.37216 21.2093 5.48625 21.1425L14.0563 16L5.48625 10.8575C5.37216 10.7907 5.27245 10.7019 5.19288 10.5963C5.11332 10.4907 5.05549 10.3704 5.02273 10.2423C4.98997 10.1142 4.98294 9.98092 5.00204 9.85009C5.02114 9.71927 5.06599 9.59353 5.134 9.48015C5.20201 9.36677 5.29183 9.268 5.39826 9.18956C5.50469 9.11112 5.62562 9.05457 5.75405 9.02317C5.88248 8.99177 6.01586 8.98614 6.14647 9.00663C6.27709 9.02711 6.40235 9.07329 6.515 9.1425L15 14.2338V5C15 4.73478 15.1054 4.48043 15.2929 4.29289C15.4804 4.10536 15.7348 4 16 4C16.2652 4 16.5196 4.10536 16.7071 4.29289C16.8946 4.48043 17 4.73478 17 5V14.2338L25.485 9.1425C25.5977 9.07329 25.7229 9.02711 25.8535 9.00663C25.9841 8.98614 26.1175 8.99177 26.246 9.02317C26.3744 9.05457 26.4953 9.11112 26.6017 9.18956C26.7082 9.268 26.798 9.36677 26.866 9.48015C26.934 9.59353 26.9789 9.71927 26.998 9.85009C27.0171 9.98092 27.01 10.1142 26.9773 10.2423C26.9445 10.3704 26.8867 10.4907 26.8071 10.5963C26.7276 10.7019 26.6278 10.7907 26.5138 10.8575L17.9438 16L26.5138 21.1425C26.6265 21.21 26.7248 21.2991 26.8031 21.4046C26.8814 21.5101 26.9382 21.63 26.9701 21.7575C27.002 21.885 27.0085 22.0175 26.9892 22.1475C26.9699 22.2774 26.9251 22.4023 26.8575 22.515Z" fill="#C71F1F"/>
</svg>
